<svg width="49" height="36" viewBox="0 0 49 36" fill="none" xmlns="http://www.w3.org/2000/svg">
<g style="mix-blend-mode:color-burn" filter="url(#filter0_d_1_14)">
<path d="M21.7018 1.88829C14.4153 -0.628553 4.97039 0.239138 3.5 1.88828C3.5 1.88828 8.78711 9.4034 8.46358 8.88822C13.4711 16.9617 17.7064 19.1744 21.2517 18.3088V7.14865C17.1795 8.90452 8.25476 8.5557 8.46358 8.88822C8.78711 9.4034 3.5 1.88828 3.5 1.88828C4.97039 0.239138 14.4153 -0.628553 21.7018 1.88829H33.316H45.3802L21.3228 29.809C21.2991 29.8364 21.2754 29.8639 21.2517 29.8914V18.3088C17.7064 19.1744 13.4711 16.9617 8.46358 8.88822C8.25476 8.5557 17.1795 8.90452 21.2517 7.14865V1.88829H21.7018Z" fill="#1A2523" shape-rendering="crispEdges"/>
<path d="M21.2517 29.8914C48.4106 -1.58629 6.72882 -1.73306 3.5 1.88828C3.5 1.88828 8.78711 9.4034 8.46358 8.88822M21.2517 29.8914V1.88829M21.2517 29.8914L45.3802 1.88829H33.316M21.2517 1.88829C29.74 9.49331 8.14006 8.37304 8.46358 8.88822M21.2517 1.88829H33.316M8.46358 8.88822C21.4929 29.8954 29.2945 11.2227 33.316 1.88829" stroke="#0AFFC2" stroke-opacity="0.8" stroke-width="0.599395" shape-rendering="crispEdges"/>
</g>
<g style="mix-blend-mode:darken">
<path d="M29.955 22.3249L30.1505 22.0977L29.9145 21.913L29.719 22.1402L29.955 22.3249ZM30.4152 22.6851L30.6512 22.8698L30.8467 22.6426L30.6107 22.4579L30.4152 22.6851ZM29.2461 24.0434L29.0101 23.8587L28.8145 24.0858L29.0506 24.2706L29.2461 24.0434ZM32.8357 26.8529L33.0718 27.0376L33.2673 26.8104L33.0313 26.6257L32.8357 26.8529ZM32.4291 27.3253L32.2336 27.5525L32.4696 27.7372L32.6651 27.5101L32.4291 27.3253ZM28.8394 24.5159L29.0349 24.2887L28.7989 24.104L28.6034 24.3312L28.8394 24.5159ZM27.6703 25.8742L27.4747 26.1013L27.7108 26.2861L27.9063 26.0589L27.6703 25.8742ZM27.21 25.514L26.974 25.3293L26.7785 25.5564L27.0145 25.7412L27.21 25.514ZM29.7595 22.552L30.2197 22.9122L30.6107 22.4579L30.1505 22.0977L29.7595 22.552ZM30.1792 22.5004L29.0101 23.8587L29.4821 24.2281L30.6512 22.8698L30.1792 22.5004ZM29.0506 24.2706L32.6402 27.08L33.0313 26.6257L29.4416 23.8163L29.0506 24.2706ZM32.5997 26.6682L32.1931 27.1406L32.6651 27.5101L33.0718 27.0376L32.5997 26.6682ZM32.6246 27.0982L29.0349 24.2887L28.6439 24.743L32.2336 27.5525L32.6246 27.0982ZM28.6034 24.3312L27.4342 25.6895L27.9063 26.0589L29.0754 24.7006L28.6034 24.3312ZM27.8658 25.647L27.4055 25.2869L27.0145 25.7412L27.4747 26.1013L27.8658 25.647ZM27.446 25.6987L30.191 22.5096L29.719 22.1402L26.974 25.3293L27.446 25.6987ZM34.4577 24.873L34.1526 24.903L34.1526 24.903L34.4577 24.873ZM33.9799 25.4281L33.9513 25.1369L33.9513 25.1369L33.9799 25.4281ZM33.7676 24.7974C33.8218 24.7343 33.8673 24.7169 33.9096 24.7128L33.8523 24.1303C33.6253 24.1526 33.4378 24.2627 33.2956 24.428L33.7676 24.7974ZM33.9096 24.7128C33.9518 24.7086 33.9998 24.7168 34.0653 24.7681L34.4563 24.3138C34.2846 24.1794 34.0793 24.108 33.8523 24.1303L33.9096 24.7128ZM34.0653 24.7681C34.1308 24.8194 34.1486 24.8627 34.1526 24.903L34.7629 24.843C34.7416 24.6263 34.6281 24.4482 34.4563 24.3138L34.0653 24.7681ZM34.1526 24.903C34.1566 24.9433 34.1475 24.9892 34.0933 25.0523L34.5653 25.4217C34.7076 25.2564 34.7842 25.0597 34.7629 24.843L34.1526 24.903ZM34.0933 25.0523C34.039 25.1153 33.9935 25.1327 33.9513 25.1369L34.0085 25.7194C34.2356 25.697 34.423 25.587 34.5653 25.4217L34.0933 25.0523ZM33.9513 25.1369C33.909 25.1411 33.861 25.1328 33.7955 25.0816L33.4045 25.5359C33.5763 25.6703 33.7815 25.7417 34.0085 25.7194L33.9513 25.1369ZM33.7955 25.0816C33.73 25.0303 33.7122 24.987 33.7082 24.9467L33.098 25.0067C33.1193 25.2234 33.2328 25.4014 33.4045 25.5359L33.7955 25.0816ZM33.7082 24.9467C33.7043 24.9064 33.7133 24.8604 33.7676 24.7974L33.2956 24.428C33.1533 24.5933 33.0767 24.79 33.098 25.0067L33.7082 24.9467ZM39.4905 19.1214L39.7265 19.3061L40.012 18.9743L39.5874 18.8428L39.4905 19.1214ZM39.0584 19.6233L38.9601 19.9015L39.1599 19.9644L39.2944 19.8081L39.0584 19.6233ZM37.5796 19.1579L37.6779 18.8797L37.4782 18.8169L37.3436 18.9732L37.5796 19.1579ZM36.0597 20.9237L35.8237 20.739L35.6892 20.8953L35.7928 21.0699L36.0597 20.9237ZM36.8268 22.216L37.0629 22.4007L37.1974 22.2444L37.0938 22.0698L36.8268 22.216ZM36.3999 22.7121L36.132 22.8567L36.3499 23.229L36.6359 22.8968L36.3999 22.7121ZM33.6563 18.0246L33.4203 17.8399L33.2867 17.9952L33.3885 18.1693L33.6563 18.0246ZM34.1392 17.4636L34.2362 17.185L34.0371 17.1233L33.9032 17.2789L34.1392 17.4636ZM35.7469 20.3923L35.4818 20.5414L35.7024 20.903L35.983 20.577L35.7469 20.3923ZM36.972 18.969L37.208 19.1537L37.4894 18.8267L37.0729 18.6917L36.972 18.969ZM34.3627 18.1227L34.4635 17.8454L33.683 17.5923L34.0975 18.2719L34.3627 18.1227ZM39.2545 18.9366L38.8224 19.4386L39.2944 19.8081L39.7265 19.3061L39.2545 18.9366ZM39.1567 19.3452L37.6779 18.8797L37.4813 19.436L38.9601 19.9015L39.1567 19.3452ZM37.3436 18.9732L35.8237 20.739L36.2958 21.1084L37.8156 19.3426L37.3436 18.9732ZM35.7928 21.0699L36.5599 22.3621L37.0938 22.0698L36.3267 20.7776L35.7928 21.0699ZM36.5908 22.0313L36.1638 22.5274L36.6359 22.8968L37.0629 22.4007L36.5908 22.0313ZM36.6677 22.5674L33.9242 17.88L33.3885 18.1693L36.132 22.8567L36.6677 22.5674ZM33.8923 18.2093L34.3753 17.6483L33.9032 17.2789L33.4203 17.8399L33.8923 18.2093ZM34.0423 17.7421L39.3935 19.3999L39.5874 18.8428L34.2362 17.185L34.0423 17.7421ZM35.983 20.577L37.208 19.1537L36.736 18.7843L35.5109 20.2075L35.983 20.577ZM37.0729 18.6917L34.4635 17.8454L34.2618 18.4001L36.8711 19.2463L37.0729 18.6917ZM34.0975 18.2719L35.4818 20.5414L36.0121 20.2432L34.6278 17.9736L34.0975 18.2719ZM41.8149 16.3253L41.5098 16.3553L41.5098 16.3553L41.8149 16.3253ZM41.3371 16.8805L41.3085 16.5892L41.3085 16.5892L41.3371 16.8805ZM41.1248 16.2497C41.179 16.1867 41.2245 16.1693 41.2668 16.1651L41.2095 15.5827C40.9824 15.605 40.795 15.715 40.6528 15.8803L41.1248 16.2497ZM41.2668 16.1651C41.309 16.161 41.357 16.1692 41.4225 16.2204L41.8135 15.7661C41.6418 15.6317 41.4365 15.5603 41.2095 15.5827L41.2668 16.1651ZM41.4225 16.2204C41.488 16.2717 41.5058 16.315 41.5098 16.3553L42.1201 16.2953C42.0988 16.0786 41.9853 15.9006 41.8135 15.7661L41.4225 16.2204ZM41.5098 16.3553C41.5138 16.3956 41.5047 16.4416 41.4505 16.5046L41.9225 16.874C42.0648 16.7087 42.1414 16.512 42.1201 16.2953L41.5098 16.3553ZM41.4505 16.5046C41.3962 16.5677 41.3507 16.5851 41.3085 16.5892L41.3657 17.1717C41.5928 17.1494 41.7802 17.0393 41.9225 16.874L41.4505 16.5046ZM41.3085 16.5892C41.2662 16.5934 41.2182 16.5852 41.1527 16.5339L40.7617 16.9882C40.9334 17.1226 41.1387 17.194 41.3657 17.1717L41.3085 16.5892ZM41.1527 16.5339C41.0872 16.4826 41.0694 16.4393 41.0654 16.399L40.4552 16.459C40.4765 16.6757 40.5899 16.8538 40.7617 16.9882L41.1527 16.5339ZM41.0654 16.399C41.0615 16.3587 41.0705 16.3128 41.1248 16.2497L40.6528 15.8803C40.5105 16.0456 40.4339 16.2423 40.4552 16.459L41.0654 16.399ZM42.9161 14.7715L43.0142 15.0481L43.0192 15.0463L42.9161 14.7715ZM41.6532 14.8308L41.5808 15.1159L41.5839 15.1166L41.6532 14.8308ZM39.4421 13.0805L39.1591 13.1955L39.1604 13.1982L39.4421 13.0805ZM39.2884 11.8631L39.5906 11.9094L39.5911 11.9064L39.2884 11.8631ZM40.8945 9.93738L40.9949 10.2131L40.997 10.2124L40.8945 9.93738ZM42.1024 9.89429L42.4033 9.94713L42.4589 9.67124L42.1732 9.60886L42.1024 9.89429ZM41.9767 10.5175L41.8793 10.7959L42.2113 10.8994L42.2777 10.5704L41.9767 10.5175ZM41.0932 10.5179L41.187 10.7959L41.1941 10.7935L41.0932 10.5179ZM39.9109 11.9154L40.2141 11.9552L40.2144 11.9536L39.9109 11.9154ZM40.0576 12.8308L39.7771 12.9513L39.778 12.9531L40.0576 12.8308ZM41.7861 14.2231L41.6963 14.5039L41.7023 14.5054L41.7861 14.2231ZM42.7308 14.2113L42.8242 14.4894L42.8309 14.4871L42.7308 14.2113ZM43.8763 13.131L44.157 13.2462L44.1591 13.2413L43.8763 13.131ZM43.9951 12.6112L43.6887 12.6048L43.6886 12.6102L43.9951 12.6112ZM43.8834 12.1086L43.6062 12.2358L43.6062 12.2358L43.8834 12.1086ZM43.3583 11.5493L43.5538 11.3222L43.3178 11.1375L43.1223 11.3646L43.3583 11.5493ZM42.2908 12.7896L42.0953 13.0167L42.3313 13.2014L42.5268 12.9743L42.2908 12.7896ZM41.8306 12.4294L41.5946 12.2447L41.399 12.4718L41.6351 12.6565L41.8306 12.4294ZM43.2691 10.758L43.4646 10.5309L43.2286 10.3462L43.0331 10.5733L43.2691 10.758ZM45.3125 12.3573L45.5485 12.542L45.744 12.3148L45.508 12.1301L45.3125 12.3573ZM44.9922 12.7293L44.8045 12.9624L45.039 13.1339L45.2282 12.914L44.9922 12.7293ZM44.2171 12.1622L44.0187 11.9409L43.731 12.1769L44.0294 12.3953L44.2171 12.1622ZM44.322 12.0763L44.5935 11.9382L44.4158 11.6151L44.1235 11.8549L44.322 12.0763ZM44.4942 13.0216L44.7974 13.0616L44.4942 13.0216ZM43.7603 13.821C43.4708 14.1574 43.1545 14.3773 42.8131 14.4967L43.0192 15.0463C43.4809 14.8849 43.8847 14.5943 44.2323 14.1905L43.7603 13.821ZM42.8181 14.495C42.4732 14.6092 42.1104 14.6277 41.7226 14.545L41.5839 15.1166C42.0754 15.2213 42.5545 15.2003 43.0142 15.048L42.8181 14.495ZM41.7257 14.5457C41.3442 14.4603 40.9522 14.2677 40.55 13.9529L40.159 14.4072C40.6159 14.7648 41.0897 15.006 41.5808 15.1159L41.7257 14.5457ZM40.55 13.9529C40.1495 13.6395 39.8795 13.3084 39.7238 12.9627L39.1604 13.1982C39.3622 13.6463 39.7004 14.0483 40.159 14.4072L40.55 13.9529ZM39.725 12.9655C39.5708 12.613 39.5278 12.263 39.5905 11.9094L38.9862 11.8167C38.9032 12.2847 38.9627 12.7464 39.1592 13.1955L39.725 12.9655ZM39.5911 11.9064C39.6503 11.55 39.8144 11.2098 40.0952 10.8834L39.6232 10.514C39.2806 10.9121 39.0641 11.348 38.9857 11.8197L39.5911 11.9064ZM40.0952 10.8834C40.4044 10.5242 40.706 10.3113 40.9949 10.2131L40.7941 9.66165C40.3668 9.80687 39.9783 10.1015 39.6232 10.514L40.0952 10.8834ZM40.997 10.2124C41.293 10.1095 41.6342 10.093 42.0315 10.1797L42.1732 9.60886C41.683 9.5018 41.219 9.51396 40.792 9.66237L40.997 10.2124ZM41.8014 9.84146L41.6758 10.4647L42.2777 10.5704L42.4033 9.94713L41.8014 9.84146ZM42.0742 10.2391C41.7081 10.1251 41.3436 10.1223 40.9923 10.2423L41.1941 10.7935C41.4054 10.7212 41.6299 10.7182 41.8793 10.7959L42.0742 10.2391ZM40.9995 10.24C40.6499 10.3503 40.3457 10.5695 40.0834 10.8742L40.5555 11.2436C40.7609 11.005 40.9725 10.8635 41.1869 10.7958L40.9995 10.24ZM40.0834 10.8742C39.8239 11.1758 39.6614 11.511 39.6074 11.8771L40.2144 11.9536C40.251 11.7053 40.361 11.4696 40.5555 11.2436L40.0834 10.8742ZM39.6077 11.8755C39.5523 12.2367 39.6131 12.5973 39.7771 12.9513L40.338 12.7102C40.2145 12.4438 40.1775 12.1941 40.2141 11.9552L39.6077 11.8755ZM39.778 12.9531C39.9446 13.3061 40.2196 13.6244 40.586 13.9111L40.977 13.4568C40.6643 13.2121 40.4566 12.9615 40.3371 12.7084L39.778 12.9531ZM40.586 13.9111C40.9484 14.1948 41.3184 14.3966 41.6964 14.5038L41.8757 13.9424C41.5934 13.8623 41.2937 13.7047 40.977 13.4568L40.586 13.9111ZM41.7023 14.5054C42.0846 14.6058 42.4614 14.6033 42.8242 14.4893L42.6374 13.9333C42.3995 14.0081 42.1464 14.0134 41.8698 13.9408L41.7023 14.5054ZM42.8309 14.4871C43.1943 14.364 43.5121 14.1323 43.7873 13.8126L43.3153 13.4431C43.0958 13.6982 42.8665 13.8555 42.6307 13.9355L42.8309 14.4871ZM43.7873 13.8126C43.9422 13.6327 44.0664 13.4439 44.1569 13.2462L43.5956 13.0158C43.5307 13.1577 43.4383 13.3002 43.3153 13.4431L43.7873 13.8126ZM44.1591 13.2413C44.2493 13.034 44.2988 12.8236 44.3015 12.6121L43.6886 12.6102C43.687 12.7379 43.6572 12.8741 43.5934 13.0207L44.1591 13.2413ZM44.3014 12.6175C44.3085 12.3962 44.2606 12.183 44.1606 11.9813L43.6062 12.2358C43.6663 12.3572 43.6928 12.479 43.6888 12.6048L44.3014 12.6175ZM44.1606 11.9813C44.0576 11.7737 43.8981 11.5917 43.6949 11.4327L43.3039 11.8869C43.4525 12.0033 43.549 12.1205 43.6062 12.2358L44.1606 11.9813ZM43.6949 11.4327L43.5538 11.3222L43.1628 11.7765L43.3039 11.8869L43.6949 11.4327ZM43.1223 11.3646L42.0548 12.6048L42.5268 12.9743L43.5943 11.7341L43.1223 11.3646ZM42.4863 12.5624L42.0261 12.2022L41.6351 12.6565L42.0953 13.0167L42.4863 12.5624ZM42.0666 12.6141L43.5051 10.9427L43.0331 10.5733L41.5946 12.2447L42.0666 12.6141ZM43.0736 10.9852L45.117 12.5844L45.508 12.1301L43.4646 10.5309L43.0736 10.9852ZM45.0765 12.1726L44.7562 12.5446L45.2282 12.914L45.5485 12.542L45.0765 12.1726ZM45.18 12.4963L44.4049 11.9292L44.0294 12.3953L44.8045 12.9624L45.18 12.4963ZM44.4156 12.3836L44.5204 12.2976L44.1235 11.8549L44.0187 11.9409L44.4156 12.3836ZM44.0504 12.2143C44.1868 12.4622 44.232 12.7151 44.191 12.9816L44.7974 13.0616C44.8578 12.6693 44.7882 12.2921 44.5935 11.9382L44.0504 12.2143ZM44.191 12.9816C44.1504 13.2454 44.0152 13.5249 43.7603 13.821L44.2323 14.1905C44.5399 13.8331 44.7367 13.4564 44.7974 13.0616L44.191 12.9816Z" fill="#2A7063"/>
</g>
<defs>
<filter id="filter0_d_1_14" x="0.720507" y="0.00975037" width="47.7111" height="35.483" filterUnits="userSpaceOnUse" color-interpolation-filters="sRGB">
<feFlood flood-opacity="0" result="BackgroundImageFix"/>
<feColorMatrix in="SourceAlpha" type="matrix" values="0 0 0 0 0 0 0 0 0 0 0 0 0 0 0 0 0 0 127 0" result="hardAlpha"/>
<feOffset dy="2.39758"/>
<feGaussianBlur stdDeviation="1.19879"/>
<feComposite in2="hardAlpha" operator="out"/>
<feColorMatrix type="matrix" values="0 0 0 0 0 0 0 0 0 0 0 0 0 0 0 0 0 0 0.25 0"/>
<feBlend mode="normal" in2="BackgroundImageFix" result="effect1_dropShadow_1_14"/>
<feBlend mode="normal" in="SourceGraphic" in2="effect1_dropShadow_1_14" result="shape"/>
</filter>
</defs>
</svg>
